<svg xmlns="http://www.w3.org/2000/svg" fill="none" viewBox="-1.25 -1.25 40 40" id="Navigation-Menu-1--Streamline-Ultimate.svg" height="40" width="40"><desc>Navigation Menu 1 Streamline Icon: https://streamlinehq.com</desc><path stroke="#000000" stroke-linecap="round" stroke-linejoin="round" d="M3.515625 1.17664375h30.46875s2.34375 0 2.34375 2.343746875v2.34375s0 2.34375 -2.34375 2.34375H3.515625s-2.34375 0 -2.34375 -2.34375v-2.34375S1.171875 1.17664375 3.515625 1.17664375Z" stroke-width="2.5"></path><path stroke="#000000" stroke-linecap="round" stroke-linejoin="round" d="M3.515625 15.239140625h30.46875s2.34375 0 2.34375 2.3438281250000004v2.34375s0 2.34375 -2.34375 2.34375H3.515625s-2.34375 0 -2.34375 -2.34375v-2.34375s0 -2.3438281250000004 2.34375 -2.3438281250000004Z" stroke-width="2.5"></path><path stroke="#000000" stroke-linecap="round" stroke-linejoin="round" d="M3.515625 29.30171875h30.46875s2.34375 0 2.34375 2.34375v2.34375s0 2.34375 -2.34375 2.34375H3.515625s-2.34375 0 -2.34375 -2.34375v-2.34375s0 -2.34375 2.34375 -2.34375Z" stroke-width="2.5"></path></svg>